<svg xmlns="http://www.w3.org/2000/svg" viewBox="0 0 32 32"><title>Asset 2</title><g id="Layer_2" data-name="Layer 2"><g id="Layer_1-2" data-name="Layer 1"><path d="M28.87,32H3.13A3.14,3.14,0,0,1,0,28.87V3.13A3.14,3.14,0,0,1,3.13,0H28.87A3.14,3.14,0,0,1,32,3.13V28.87A3.14,3.14,0,0,1,28.87,32ZM3.13,2.37a.76.76,0,0,0-.76.76V28.87a.76.76,0,0,0,.76.76H28.87a.76.76,0,0,0,.76-.76V3.13a.76.76,0,0,0-.76-.76Z"/><path d="M24.37,10.33H7.63A1.19,1.19,0,1,1,7.63,8H24.37a1.19,1.19,0,1,1,0,2.37Z"/><path d="M24.37,17.19H7.63a1.19,1.19,0,1,1,0-2.38H24.37a1.19,1.19,0,0,1,0,2.38Z"/><path d="M17.48,24H7.63a1.19,1.19,0,1,1,0-2.37h9.85a1.19,1.19,0,1,1,0,2.37Z"/></g></g></svg>