<svg xmlns="http://www.w3.org/2000/svg" viewBox="0 0 138.26 20"><defs><style>.cls-1{fill:#fff;}</style></defs><title>Asset 1</title><g id="Layer_2" data-name="Layer 2"><g id="Layer_1-2" data-name="Layer 1"><path d="M0,0H3V11.48L8.38,5.05H12.6L5.82,12.42l6.78,7.34H8.49L3,13.43v6.33H0Z"/><path d="M28.12,19.76H25.07V18a5.49,5.49,0,0,1-4.35,2c-3.45,0-6.06-2.16-6.06-6.27V5.05h3v8.19c0,2.7,1.46,4.09,3.68,4.09s3.71-1.39,3.71-4.09V5.05h3.05Z"/><path d="M53,11.54c0-2.7-1.47-4.09-3.68-4.09s-3.71,1.39-3.71,4.09v8.22h-3V11.54c0-2.7-1.47-4.09-3.69-4.09s-3.71,1.39-3.71,4.09v8.22h-3V5.05h3V6.73a5.61,5.61,0,0,1,4.36-1.92A5.65,5.65,0,0,1,44.8,7.72a5.76,5.76,0,0,1,5.13-2.91C53.37,4.81,56,7,56,11.08v8.68H53Z"/><path d="M65.79,4.81a6.27,6.27,0,0,1,5.1,2.37V5.05H74V19.76H70.89V17.57A6.34,6.34,0,0,1,65.73,20c-3.81,0-6.88-3.12-6.88-7.66S61.92,4.81,65.79,4.81Zm.64,2.64C64.16,7.45,62,9.16,62,12.34s2.19,5,4.46,5,4.46-1.79,4.46-5S68.73,7.45,66.43,7.45Z"/><path d="M88.4,11.54c0-2.7-1.47-4.09-3.68-4.09S81,8.84,81,11.54v8.22H78V5.05H81V6.73a5.64,5.64,0,0,1,4.38-1.92c3.44,0,6,2.16,6,6.27v8.68h-3Z"/><path d="M101.67,20c-4.19,0-7.37-3-7.37-7.61a7.51,7.51,0,1,1,15,0A7.37,7.37,0,0,1,101.67,20Zm0-2.64c2.27,0,4.51-1.63,4.51-5S104,7.45,101.75,7.45s-4.35,1.6-4.35,4.94S99.38,17.36,101.67,17.36Z"/><path d="M112.81,7.53h-1.74V5.05h1.74V1.39h3.07V5.05h3.57V7.53h-3.57v8.14c0,1.1.42,1.55,1.71,1.55h1.86v2.54h-2.4c-2.62,0-4.24-1.1-4.24-4.09Z"/><path d="M128.59,20c-4.22,0-7.35-3-7.35-7.61s3-7.58,7.35-7.58A6.86,6.86,0,0,1,135.74,12a9.47,9.47,0,0,1-.11,1.5H124.39a4.05,4.05,0,0,0,4.2,3.9,3.57,3.57,0,0,0,3.47-2.06h3.28A6.73,6.73,0,0,1,128.59,20Zm-4.17-8.92h8.14a3.82,3.82,0,0,0-4.11-3.71A4,4,0,0,0,124.42,11.08Z"/><path class="cls-1" d="M2.52,0H5.57V11.48l5.34-6.43h4.21L8.34,12.42l6.78,7.34H11L5.57,13.43v6.33H2.52Z"/><path class="cls-1" d="M30.64,19.76H27.59V18a5.47,5.47,0,0,1-4.35,2c-3.44,0-6.06-2.16-6.06-6.27V5.05h3v8.19c0,2.7,1.47,4.09,3.68,4.09s3.71-1.39,3.71-4.09V5.05h3.05Z"/><path class="cls-1" d="M55.49,11.54c0-2.7-1.46-4.09-3.68-4.09S48.1,8.84,48.1,11.54v8.22h-3V11.54c0-2.7-1.47-4.09-3.68-4.09s-3.71,1.39-3.71,4.09v8.22h-3V5.05h3V6.73A5.58,5.58,0,0,1,42,4.81a5.65,5.65,0,0,1,5.28,2.91,5.76,5.76,0,0,1,5.13-2.91c3.45,0,6.06,2.16,6.06,6.27v8.68h-3Z"/><path class="cls-1" d="M68.31,4.81a6.27,6.27,0,0,1,5.1,2.37V5.05h3.07V19.76H73.41V17.57A6.31,6.31,0,0,1,68.26,20c-3.82,0-6.89-3.12-6.89-7.66S64.44,4.81,68.31,4.81ZM69,7.45c-2.27,0-4.46,1.71-4.46,4.89s2.19,5,4.46,5,4.46-1.79,4.46-5S71.25,7.45,69,7.45Z"/><path class="cls-1" d="M90.92,11.54c0-2.7-1.46-4.09-3.68-4.09s-3.71,1.39-3.71,4.09v8.22h-3V5.05h3V6.73a5.67,5.67,0,0,1,4.38-1.92c3.44,0,6,2.16,6,6.27v8.68h-3Z"/><path class="cls-1" d="M104.19,20c-4.19,0-7.37-3-7.37-7.61a7.51,7.51,0,1,1,15,0A7.37,7.37,0,0,1,104.19,20Zm0-2.64c2.27,0,4.52-1.63,4.52-5s-2.17-4.94-4.44-4.94-4.35,1.6-4.35,4.94S101.9,17.36,104.19,17.36Z"/><path class="cls-1" d="M115.33,7.53h-1.74V5.05h1.74V1.39h3.07V5.05H122V7.53H118.4v8.14c0,1.1.43,1.55,1.71,1.55H122v2.54h-2.41c-2.61,0-4.24-1.1-4.24-4.09Z"/><path class="cls-1" d="M131.11,20c-4.22,0-7.35-3-7.35-7.61s3-7.58,7.35-7.58A6.86,6.86,0,0,1,138.26,12a9.45,9.45,0,0,1-.1,1.5H126.91a4.05,4.05,0,0,0,4.2,3.9,3.56,3.56,0,0,0,3.47-2.06h3.28A6.73,6.73,0,0,1,131.11,20Zm-4.17-8.92h8.15A3.83,3.83,0,0,0,131,7.37,4,4,0,0,0,126.94,11.08Z"/></g></g></svg>